	<svg width="50%" height="50%" viewBox="0 0 300 300" xmlns="http://www.w3.org/2000/svg">
			<!-- Background Circle -->
			<circle cx="150" cy="150" r="145" fill="#003300" />
			
			<!-- Outer Ring - Orange for copper mining -->
			<circle cx="150" cy="150" r="140" fill="none" stroke="#ED7D31" stroke-width="10" />
			
			<!-- Zambian Flag Colors - Background Elements -->
			<path d="M50,150 C50,95 95,50 150,50 C205,50 250,95 250,150" fill="#2E8B57" />
			<path d="M50,150 C50,205 95,250 150,250 C205,250 250,205 250,150" fill="#DE3831" />
			<path d="M150,50 L150,250" stroke="#000000" stroke-width="35" />
			<path d="M150,50 L150,250" stroke="#F68B1F" stroke-width="25" />
			
			<!-- Eagle Symbol (Simplified) -->
			<!-- <g transform="translate(100, 70) scale(0.5)">
					<path d="M100,70 C120,40 140,60 150,70 C160,60 180,40 200,70 
									 C210,90 200,120 180,140 C160,160 140,160 120,140 
									 C100,120 90,90 100,70 Z" 
								fill="#000000" />
					<circle cx="135" cy="90" r="5" fill="#ffffff" />
					<circle cx="165" cy="90" r="5" fill="#ffffff" />
					<path d="M140,110 Q150,120 160,110" stroke="#ffffff" stroke-width="3" fill="none" />
			</g>
			 -->
			<!-- Victoria Falls Representation -->
			<!-- <path d="M70,170 Q80,180 90,170 Q100,160 110,170 Q120,180 130,170 Q140,160 150,170 
							 Q160,180 170,170 Q180,160 190,170 Q200,180 210,170 Q220,160 230,170" 
						stroke="#38B0DE" stroke-width="5" fill="none" /> -->
			
			<!-- Text "ZAMBIA" -->
			<!-- <text x="150" y="220" font-family="Arial, sans-serif" font-weight="bold" font-size="24" 
						fill="#ffffff" text-anchor="middle">ZAMBIA</text> -->
			
			<!-- Stars representing the provinces -->
			<!-- <g fill="#FFD700">
					<polygon points="150,50 155,65 170,65 160,75 165,90 150,80 135,90 140,75 130,65 145,65" transform="scale(0.5) translate(180, 50)" />
					<polygon points="150,50 155,65 170,65 160,75 165,90 150,80 135,90 140,75 130,65 145,65" transform="scale(0.5) translate(100, 50)" />
					<polygon points="150,50 155,65 170,65 160,75 165,90 150,80 135,90 140,75 130,65 145,65" transform="scale(0.5) translate(260, 80)" />
					<polygon points="150,50 155,65 170,65 160,75 165,90 150,80 135,90 140,75 130,65 145,65" transform="scale(0.5) translate(20, 80)" />
					<polygon points="150,50 155,65 170,65 160,75 165,90 150,80 135,90 140,75 130,65 145,65" transform="scale(0.5) translate(340, 180)" />
					<polygon points="150,50 155,65 170,65 160,75 165,90 150,80 135,90 140,75 130,65 145,65" transform="scale(0.5) translate(-60, 180)" />
			</g> -->
	</svg>